<?xml version="1.0" encoding="utf-8"?>
<!-- Generator: Adobe Illustrator 21.0.0, SVG Export Plug-In . SVG Version: 6.00 Build 0)  -->
<svg version="1.1" id="Слой_1" xmlns:svgjs="http://svgjs.com/svgjs"
	 xmlns="http://www.w3.org/2000/svg" xmlns:xlink="http://www.w3.org/1999/xlink" x="0px" y="0px" viewBox="0 0 512 512"
	 style="enable-background:new 0 0 512 512;" xml:space="preserve">
<style type="text/css">
	.st0{fill:#6C757D;}
</style>
<path class="st0" d="M475.5,347.1c-35.2-29.7-55.4-73.2-55.4-119.3v-64.9c0-81.9-60.9-149.7-139.8-161c0,0-10.4-1.9-23.3-1.9
	c-12.9,0-23.3,1.9-23.3,1.9c-78.9,11.4-139.8,79.1-139.8,161v64.9c0,46.1-20.2,89.5-55.6,119.4c-9.1,7.8-14.3,19-14.3,30.9
	c0,22.5,18.3,40.7,40.8,40.7h384.4c22.5,0,40.8-18.3,40.8-40.7C490,366.3,484.8,355,475.5,347.1z"/>
<path class="st0" d="M257,512c42.2,0,77.5-30,85.6-69.8H171.4C179.5,482,214.8,512,257,512z"/>
<script></script>
</svg>
