<?xml version="1.0" encoding="utf-8"?>
<!-- Generator: Adobe Illustrator 21.0.0, SVG Export Plug-In . SVG Version: 6.00 Build 0)  -->
<svg version="1.1" id="Слой_1" xmlns:svgjs="http://svgjs.com/svgjs"
	 xmlns="http://www.w3.org/2000/svg" xmlns:xlink="http://www.w3.org/1999/xlink" x="0px" y="0px" viewBox="0 0 512 512"
	 style="enable-background:new 0 0 512 512;" xml:space="preserve">
<style type="text/css">
	.st0{fill:none;}
	.st1{fill:#6C757D;}
</style>
<script></script>
<script></script>
<circle class="st0" cx="372.7" cy="656.7" r="109.8"/>
<path class="st1" d="M372.7,398.8L372.7,398.8h-70l0,0H277h-62.3l0,0h-79l0,0h-9.2c-2,0-3.8-0.5-5.5-1.3V119.3v-8v-7.5
	c1.6-0.8,3.5-1.3,5.5-1.3h50.3h18.9c0.4,0,0.8,0,1.2,0.1h33.9H277h56.9L381,48c3.2-3.6,4-8.7,2.2-12.5c-1.8-3.9-5.7-6.7-10.5-6.7
	h-5.2h-64.8h-25.5h-62.5h-79H56.4c-9.4,0-17,5.7-17,12.8v25.9V434v25.9c0,7,7.7,12.8,17,12.8h64.5h55.7h54.1H277h57l6.9-8l40.1-46.5
	c3.2-3.6,4-8.7,2.2-12.5C381.4,401.6,377.5,398.8,372.7,398.8z"/>
<path class="st1" d="M461.1,238.1l-114.2-78.7c-10-6.9-18.2-2.6-18.2,9.6v43.3H223.8c-6.6,0-12,5.4-12,12v53c0,6.6,5.4,12,12,12
	h104.8v43.3c0,12.2,8.2,16.5,18.2,9.6L461,263.3C471.1,256.4,471.1,245,461.1,238.1z"/>
<path class="st1" d="M265.4,289.3h-68.9c-6.6,0-12-5.4-12-12v-52.9c0-6.6,5.4-12,12-12h68.9c6.6,0,12,5.4,12,12v52.9
	C277.4,283.9,272,289.3,265.4,289.3z"/>
</svg>
