<?xml version="1.0"?>
<svg xmlns="http://www.w3.org/2000/svg" xmlns:xlink="http://www.w3.org/1999/xlink" xmlns:svgjs="http://svgjs.com/svgjs" version="1.1" width="512" height="512" x="0" y="0" viewBox="0 0 296 296" style="enable-background:new 0 0 512 512" xml:space="preserve" class=""><g>
<g xmlns="http://www.w3.org/2000/svg">
	<path d="M288.155,22h-1.504c-3.112,0-6.707,2.004-8.744,4.36L240.507,70h-31.131l31.749-36.865c1.822-2.108,2.296-5.003,1.269-7.25   C241.367,23.638,239.09,22,236.305,22h-40.434c-3.113,0-6.71,2.005-8.744,4.36L149.727,70h-31.131l31.749-36.865   c1.822-2.108,2.296-5.003,1.269-7.25c-1.027-2.247-3.304-3.885-6.09-3.885h-40.433c-3.113,0-6.71,2.005-8.744,4.36L58.947,70   H27.696L59.05,33.12c1.802-2.114,2.261-5.01,1.228-7.248C59.244,23.633,56.969,22,54.19,22H8.511C4.1,22,0,26.059,0,30.47v39.28   v4.621v180.821C0,265.304,8.737,274,18.849,274h258.969c10.111,0,18.183-8.696,18.183-18.808V74.371V69.75V30.47   C296,26.059,292.566,22,288.155,22z M147.965,234.609c-35.065,0-63.49-28.425-63.49-63.49c0-35.065,28.426-63.49,63.49-63.49   s63.49,28.425,63.49,63.49C211.456,206.184,183.03,234.609,147.965,234.609z" fill="#6c757d" data-original="#000000" style="" class=""/>
	<path d="M184.704,165.441l-51.484-35.46c-4.527-3.123-8.22-1.178-8.22,4.322v73.634c0,5.5,3.693,7.445,8.22,4.322l51.445-35.46   C189.192,173.675,189.231,168.564,184.704,165.441z" fill="#6c757d" data-original="#000000" style="" class=""/>
</g>
<g xmlns="http://www.w3.org/2000/svg">
</g>
<g xmlns="http://www.w3.org/2000/svg">
</g>
<g xmlns="http://www.w3.org/2000/svg">
</g>
<g xmlns="http://www.w3.org/2000/svg">
</g>
<g xmlns="http://www.w3.org/2000/svg">
</g>
<g xmlns="http://www.w3.org/2000/svg">
</g>
<g xmlns="http://www.w3.org/2000/svg">
</g>
<g xmlns="http://www.w3.org/2000/svg">
</g>
<g xmlns="http://www.w3.org/2000/svg">
</g>
<g xmlns="http://www.w3.org/2000/svg">
</g>
<g xmlns="http://www.w3.org/2000/svg">
</g>
<g xmlns="http://www.w3.org/2000/svg">
</g>
<g xmlns="http://www.w3.org/2000/svg">
</g>
<g xmlns="http://www.w3.org/2000/svg">
</g>
<g xmlns="http://www.w3.org/2000/svg">
</g>
<script/></g></svg>
